<svg width="300" height="300" viewBox="0 0 300 300" fill="none" xmlns="http://www.w3.org/2000/svg">
<g clip-path="url(#clip0_2447_15184)">
<path d="M300 0H0V300H300V0Z" fill="#1BA4B7"/>
<path fill-rule="evenodd" clip-rule="evenodd" d="M186.258 76.2422L300 185.826V300H99.174L47.292 250.662L115.968 228.036L155.328 165.186L155.886 100.104L186.258 76.2422Z" fill="#128B9B"/>
<path fill-rule="evenodd" clip-rule="evenodd" d="M252.642 250.662C252.024 231.57 246.942 219.486 236.214 216.138C215.016 209.814 197.784 199.218 180.864 188.31C145.596 200.952 154.338 200.952 119.064 188.31C102.144 199.218 84.9121 209.82 63.7741 216.138C53.0521 219.486 47.9041 231.57 47.2861 250.662H252.636H252.642Z" fill="#9DCED5"/>
<path fill-rule="evenodd" clip-rule="evenodd" d="M189.42 193.698C186.57 191.898 183.72 190.104 180.864 188.304C145.596 200.946 154.338 200.946 119.064 188.304C116.274 190.104 113.424 191.898 110.508 193.698C120.24 203.184 134.31 209.13 149.994 209.13C165.678 209.13 179.682 203.178 189.414 193.698H189.42Z" fill="#85B0B7"/>
<path fill-rule="evenodd" clip-rule="evenodd" d="M115.848 250.662H47.292C47.91 231.57 53.058 219.486 63.78 216.138C78.408 211.74 91.116 205.35 103.2 198.222L115.842 250.662H115.848Z" fill="#242424"/>
<path fill-rule="evenodd" clip-rule="evenodd" d="M184.152 250.662H252.642C252.024 231.57 246.942 219.486 236.214 216.138C221.586 211.74 208.878 205.35 196.794 198.222L184.152 250.662Z" fill="#242424"/>
<path fill-rule="evenodd" clip-rule="evenodd" d="M119.07 188.304C119.07 188.304 127.188 148.26 122.73 112.686H177.336C172.872 148.266 180.93 188.304 180.93 188.304C160.35 202.806 139.71 203.43 119.07 188.304Z" fill="#FEDAAE"/>
<path fill-rule="evenodd" clip-rule="evenodd" d="M120.684 179.13C122.73 165.246 125.892 137.85 122.73 112.686H177.336C174.174 137.85 177.276 165.246 179.382 179.13C174.054 185.886 168.72 189.666 163.392 191.526C158.868 193.014 154.464 193.632 150.006 193.632C145.548 193.632 141.204 193.014 136.68 191.526C131.352 189.666 126.018 185.886 120.69 179.13H120.684Z" fill="#EEBC82"/>
<path fill-rule="evenodd" clip-rule="evenodd" d="M149.502 61.7998C133.632 62.2978 121.362 67.0678 112.746 76.2418C95.514 94.5298 106.488 126.264 111.444 148.02C156.876 88.4518 142.062 88.4518 187.56 148.02C192.516 126.264 203.49 94.5298 186.258 76.2418C177.642 67.0678 165.372 62.2978 149.502 61.7998Z" fill="#69462F"/>
<path fill-rule="evenodd" clip-rule="evenodd" d="M149.502 188.37C145.47 188.37 141.57 187.872 137.478 186.57C130.848 184.464 124.212 179.13 117.522 168.408C108.036 153.096 111.696 132.396 112.812 114.294C113.244 106.854 113.37 110.388 120.684 108.78C134.94 105.678 138.288 92.3521 154.278 84.2341C165.312 78.6541 162.15 80.8261 166.362 89.4421C169.338 95.6401 173.862 101.466 180.744 106.242C187.5 110.952 185.7 108.162 186.384 117.15C187.626 134.508 190.476 153.906 181.488 168.408C174.792 179.13 168.162 184.464 161.532 186.57C157.44 187.872 153.474 188.37 149.508 188.37H149.502Z" fill="#FEDCB0"/>
<path fill-rule="evenodd" clip-rule="evenodd" d="M115.848 250.662L103.2 198.222L84.2998 204.486L102.336 250.662H115.848Z" fill="#4B494C"/>
<path fill-rule="evenodd" clip-rule="evenodd" d="M184.152 250.662L196.8 198.222L215.64 204.486L197.604 250.662H184.152Z" fill="#4B494C"/>
</g>
<defs>
<clipPath id="clip0_2447_15184">
<rect width="300" height="300" fill="white"/>
</clipPath>
</defs>
</svg>
