<svg width="300" height="300" viewBox="0 0 300 300" fill="none" xmlns="http://www.w3.org/2000/svg">
<g clip-path="url(#clip0_2447_15206)">
<path d="M299.918 0H0V300H299.918V0Z" fill="#CAE9EB"/>
<path fill-rule="evenodd" clip-rule="evenodd" d="M299.919 181.664V300H109.37L64.5396 255.17L171.89 147.738L126.171 102.02L173.263 54.9272L299.919 181.664Z" fill="#A4C3C5"/>
<path fill-rule="evenodd" clip-rule="evenodd" d="M149.918 44.8306C167.527 44.8306 181.825 59.0473 181.825 76.6561C181.825 94.2649 167.527 108.563 149.918 108.563C132.309 108.563 118.093 94.2655 118.093 76.6561C118.093 59.0467 132.39 44.8306 149.918 44.8306Z" fill="#3A392F"/>
<path fill-rule="evenodd" clip-rule="evenodd" d="M235.379 232.633V255.17H64.5396V232.633C64.5396 191.68 128.433 206.462 135.299 155.412C141.115 151.777 144.184 152.423 149.919 148.708C155.735 152.423 158.805 151.777 164.621 155.412C171.486 206.462 235.38 191.68 235.38 232.633H235.379Z" fill="#FEFEFE"/>
<path fill-rule="evenodd" clip-rule="evenodd" d="M110.258 191.276C122.374 184.248 132.795 174.394 135.298 155.412C141.115 151.777 144.184 152.423 149.919 148.708C155.735 152.423 158.804 151.777 164.62 155.412C167.124 174.394 177.544 184.248 189.661 191.276C180.614 203.554 166.155 211.47 149.919 211.47C133.683 211.47 119.305 203.554 110.258 191.276Z" fill="#F3AE75"/>
<path fill-rule="evenodd" clip-rule="evenodd" d="M124.636 179.887C129.967 173.829 133.844 166.075 135.298 155.412C141.114 151.777 144.183 152.423 149.918 148.708C155.734 152.423 158.804 151.777 164.62 155.412C166.477 169.063 172.374 178.029 180.048 184.572C172.617 191.195 163.893 194.992 154.685 194.992C143.457 194.992 133.117 189.418 124.636 179.887H124.636Z" fill="#E29D64"/>
<path d="M180.291 184.734L165.994 255.169H235.379V232.633C235.379 202.746 201.292 202.504 180.291 184.733V184.734Z" fill="#AEDBF1"/>
<path d="M64.5396 232.633V255.17H133.926L119.629 184.734C98.6265 202.504 64.5396 202.746 64.5396 232.634V232.633Z" fill="#AEDBF1"/>
<path fill-rule="evenodd" clip-rule="evenodd" d="M198.223 112.924C198.223 154.361 176.575 187.883 149.919 187.883C123.263 187.883 101.696 154.361 101.696 112.924C101.696 45.0728 198.223 45.3152 198.223 112.924Z" fill="#F3AE75"/>
<path fill-rule="evenodd" clip-rule="evenodd" d="M198.223 112.924C198.223 116.236 198.061 119.466 197.818 122.617C192.407 122.617 187.237 121.405 182.148 119.628L182.633 113.004L181.341 119.386C175.363 117.286 169.386 114.539 163.166 112.277L163.812 97.8188L160.904 111.47C150.404 107.916 138.691 105.977 124.152 110.904V89.8218L119.628 112.601C114.217 114.943 108.401 118.093 102.1 122.536C101.858 119.386 101.696 116.155 101.696 112.924C101.696 45.0733 198.223 45.3157 198.223 112.924V112.924Z" fill="#4E4C42"/>
<path d="M102.18 203.231L122.617 253.312L108.32 200.242L102.18 203.231Z" fill="#9ACBE4"/>
<path d="M191.598 200.242L177.301 253.312L197.738 203.231L191.598 200.242Z" fill="#9ACBE4"/>
<path fill-rule="evenodd" clip-rule="evenodd" d="M194.749 235.299H211.551C212.601 235.299 213.409 236.107 213.409 237.157V247.012C213.409 248.062 212.601 248.87 211.551 248.87H194.749C193.7 248.87 192.811 248.062 192.811 247.012V237.157C192.811 236.107 193.699 235.299 194.749 235.299Z" fill="#FEFEFE"/>
<path fill-rule="evenodd" clip-rule="evenodd" d="M199.434 233.602H206.785C207.754 233.602 208.481 234.329 208.481 235.298C208.481 236.268 207.754 236.995 206.785 236.995H199.434C198.545 236.995 197.737 236.268 197.737 235.298C197.737 234.329 198.545 233.602 199.434 233.602Z" fill="#EBEBEB"/>
<path fill-rule="evenodd" clip-rule="evenodd" d="M201.615 238.771H204.604V241.195H207.108V244.184H204.604V246.688H201.615V244.184H199.192V241.195H201.615V238.771Z" fill="#52648A"/>
</g>
<defs>
<clipPath id="clip0_2447_15206">
<rect width="299.918" height="300" fill="white"/>
</clipPath>
</defs>
</svg>
