<svg width="300" height="300" viewBox="0 0 300 300" fill="none" xmlns="http://www.w3.org/2000/svg">
<g clip-path="url(#clip0_2447_15157)">
<path d="M299.581 0H-0.5V300H299.581V0Z" fill="#CBE3C3"/>
<path fill-rule="evenodd" clip-rule="evenodd" d="M299.581 169.593V300H110.838L68.0967 257.258L120.13 205.306L96.0528 181.228L125.301 151.899L149.379 175.976L168.447 156.908L127.806 116.187L186.95 56.9619L299.581 169.593Z" fill="#A5BD9D"/>
<path fill-rule="evenodd" clip-rule="evenodd" d="M230.984 226.394V257.258H68.0967V226.394C68.0967 178.965 129.018 211.689 135.562 152.626C141.057 148.344 143.965 149.071 149.54 144.789C155.034 149.071 157.943 148.344 163.518 152.626C170.062 211.689 230.983 178.966 230.983 226.394H230.984Z" fill="#74E8DB"/>
<path fill-rule="evenodd" clip-rule="evenodd" d="M108.011 190.843C121.019 185.591 132.896 176.784 135.563 152.626C139.441 149.556 142.107 149.071 145.259 147.455L149.541 155.858L153.823 147.455C156.974 149.071 159.56 149.556 163.519 152.626C166.185 176.784 177.981 185.591 191.071 190.843L149.541 228.899L108.011 190.843Z" fill="#63D7CA"/>
<path fill-rule="evenodd" clip-rule="evenodd" d="M112.212 188.985C123.523 183.491 133.138 174.199 135.563 152.626C137.825 150.849 139.683 149.879 141.46 149.152L149.54 164.827L157.62 149.152C159.316 149.879 161.175 150.849 163.518 152.626C165.861 174.199 175.557 183.491 186.788 188.985L149.54 216.375L112.211 188.985H112.212Z" fill="#F3AE75"/>
<path fill-rule="evenodd" clip-rule="evenodd" d="M99.0421 110.773C111.727 165.877 63.9758 189.873 105.102 230.676C105.102 230.676 127.644 176.865 109.788 117.641L99.0421 110.774V110.773Z" fill="#C46835"/>
<path fill-rule="evenodd" clip-rule="evenodd" d="M200.039 106.733C200.039 150.04 177.416 185.267 149.541 185.267C121.666 185.267 98.9614 150.04 98.9614 106.733C98.9614 35.5499 200.039 35.8733 200.039 106.733Z" fill="#F3AE75"/>
<path fill-rule="evenodd" clip-rule="evenodd" d="M193.01 146.728C185.9 165.473 171.195 185.268 149.541 185.268C131.523 185.268 117.868 171.048 109.95 155.616C104.698 145.355 101.467 133.72 100.012 122.327V122.247H102.84C102.84 122.247 105.749 135.336 109.95 144.87C115.525 133.477 182.91 133.881 188.97 145.112C193.252 135.578 196.241 122.247 196.241 122.247H199.069V122.327C197.938 131.053 195.837 139.294 193.009 146.728H193.01Z" fill="#FEFEFE"/>
<path fill-rule="evenodd" clip-rule="evenodd" d="M149.622 82.4942C130.715 99.3803 103.729 76.4343 99.7698 120.469C86.277 85.6456 109.869 38.7015 149.622 42.9843C189.374 38.7015 212.967 85.6456 199.474 120.469C195.514 76.4343 168.528 99.3803 149.622 82.4942Z" fill="#C46835"/>
</g>
<defs>
<clipPath id="clip0_2447_15157">
<rect width="300.081" height="300" fill="white" transform="translate(-0.5)"/>
</clipPath>
</defs>
</svg>
