<svg width="23" height="24" viewBox="0 0 23 24" fill="none" xmlns="http://www.w3.org/2000/svg">
<path d="M20.3077 1.84615H17.5385V0.923077C17.5385 0.678262 17.4412 0.443473 17.2681 0.270363C17.095 0.0972524 16.8602 0 16.6154 0C16.3706 0 16.1358 0.0972524 15.9627 0.270363C15.7896 0.443473 15.6923 0.678262 15.6923 0.923077V1.84615H6.46154V0.923077C6.46154 0.678262 6.36429 0.443473 6.19118 0.270363C6.01806 0.0972524 5.78328 0 5.53846 0C5.29365 0 5.05886 0.0972524 4.88575 0.270363C4.71264 0.443473 4.61538 0.678262 4.61538 0.923077V1.84615H1.84615C1.35652 1.84615 0.886947 2.04066 0.540726 2.38688C0.194505 2.7331 0 3.20268 0 3.69231V22.1538C0 22.6435 0.194505 23.1131 0.540726 23.4593C0.886947 23.8055 1.35652 24 1.84615 24H20.3077C20.7973 24 21.2669 23.8055 21.6131 23.4593C21.9593 23.1131 22.1538 22.6435 22.1538 22.1538V3.69231C22.1538 3.20268 21.9593 2.7331 21.6131 2.38688C21.2669 2.04066 20.7973 1.84615 20.3077 1.84615ZM6 19.3846C5.72615 19.3846 5.45845 19.3034 5.23075 19.1513C5.00305 18.9991 4.82558 18.7829 4.72078 18.5299C4.61598 18.2769 4.58856 17.9985 4.64199 17.7299C4.69542 17.4613 4.82729 17.2146 5.02093 17.0209C5.21457 16.8273 5.46129 16.6954 5.72987 16.642C5.99846 16.5886 6.27686 16.616 6.52987 16.7208C6.78287 16.8256 6.99912 17.003 7.15127 17.2307C7.30341 17.4584 7.38462 17.7261 7.38462 18C7.38462 18.3672 7.23874 18.7194 6.97907 18.9791C6.71941 19.2387 6.36722 19.3846 6 19.3846ZM11.0769 19.3846C10.8031 19.3846 10.5354 19.3034 10.3077 19.1513C10.08 18.9991 9.9025 18.7829 9.79771 18.5299C9.69291 18.2769 9.66549 17.9985 9.71891 17.7299C9.77234 17.4613 9.90421 17.2146 10.0979 17.0209C10.2915 16.8273 10.5382 16.6954 10.8068 16.642C11.0754 16.5886 11.3538 16.616 11.6068 16.7208C11.8598 16.8256 12.076 17.003 12.2282 17.2307C12.3803 17.4584 12.4615 17.7261 12.4615 18C12.4615 18.3672 12.3157 18.7194 12.056 18.9791C11.7963 19.2387 11.4441 19.3846 11.0769 19.3846ZM11.0769 14.7692C10.8031 14.7692 10.5354 14.688 10.3077 14.5359C10.08 14.3837 9.9025 14.1675 9.79771 13.9145C9.69291 13.6615 9.66549 13.3831 9.71891 13.1145C9.77234 12.8459 9.90421 12.5992 10.0979 12.4055C10.2915 12.2119 10.5382 12.08 10.8068 12.0266C11.0754 11.9732 11.3538 12.0006 11.6068 12.1054C11.8598 12.2102 12.076 12.3877 12.2282 12.6154C12.3803 12.8431 12.4615 13.1108 12.4615 13.3846C12.4615 13.7518 12.3157 14.104 12.056 14.3637C11.7963 14.6234 11.4441 14.7692 11.0769 14.7692ZM16.1538 19.3846C15.88 19.3846 15.6123 19.3034 15.3846 19.1513C15.1569 18.9991 14.9794 18.7829 14.8746 18.5299C14.7698 18.2769 14.7424 17.9985 14.7958 17.7299C14.8493 17.4613 14.9811 17.2146 15.1748 17.0209C15.3684 16.8273 15.6151 16.6954 15.8837 16.642C16.1523 16.5886 16.4307 16.616 16.6837 16.7208C16.9367 16.8256 17.153 17.003 17.3051 17.2307C17.4573 17.4584 17.5385 17.7261 17.5385 18C17.5385 18.3672 17.3926 18.7194 17.1329 18.9791C16.8733 19.2387 16.5211 19.3846 16.1538 19.3846ZM16.1538 14.7692C15.88 14.7692 15.6123 14.688 15.3846 14.5359C15.1569 14.3837 14.9794 14.1675 14.8746 13.9145C14.7698 13.6615 14.7424 13.3831 14.7958 13.1145C14.8493 12.8459 14.9811 12.5992 15.1748 12.4055C15.3684 12.2119 15.6151 12.08 15.8837 12.0266C16.1523 11.9732 16.4307 12.0006 16.6837 12.1054C16.9367 12.2102 17.153 12.3877 17.3051 12.6154C17.4573 12.8431 17.5385 13.1108 17.5385 13.3846C17.5385 13.7518 17.3926 14.104 17.1329 14.3637C16.8733 14.6234 16.5211 14.7692 16.1538 14.7692ZM20.3077 7.38462H1.84615V3.69231H4.61538V4.61538C4.61538 4.8602 4.71264 5.09499 4.88575 5.2681C5.05886 5.44121 5.29365 5.53846 5.53846 5.53846C5.78328 5.53846 6.01806 5.44121 6.19118 5.2681C6.36429 5.09499 6.46154 4.8602 6.46154 4.61538V3.69231H15.6923V4.61538C15.6923 4.8602 15.7896 5.09499 15.9627 5.2681C16.1358 5.44121 16.3706 5.53846 16.6154 5.53846C16.8602 5.53846 17.095 5.44121 17.2681 5.2681C17.4412 5.09499 17.5385 4.8602 17.5385 4.61538V3.69231H20.3077V7.38462Z" fill="#009CBD"/>
</svg>
