<svg width="18" height="16" viewBox="0 0 18 16" fill="none" xmlns="http://www.w3.org/2000/svg">
<path d="M17.6647 13.1271L10.6688 0.977643C10.4939 0.679986 10.2444 0.433184 9.94477 0.261698C9.64517 0.0902134 9.30597 0 8.96077 0C8.61557 0 8.27637 0.0902134 7.97677 0.261698C7.67718 0.433184 7.42761 0.679986 7.25279 0.977643L0.256856 13.1271C0.0886461 13.415 0 13.7425 0 14.0759C0 14.4094 0.0886461 14.7368 0.256856 15.0247C0.429438 15.3242 0.678588 15.5723 0.978738 15.7437C1.27889 15.9151 1.61923 16.0035 1.96484 15.9999H15.9567C16.302 16.0032 16.6421 15.9146 16.9419 15.7433C17.2417 15.5719 17.4906 15.3239 17.6631 15.0247C17.8315 14.7369 17.9205 14.4096 17.9207 14.0761C17.921 13.7427 17.8327 13.4152 17.6647 13.1271ZM8.32078 6.39999C8.32078 6.23025 8.3882 6.06747 8.50823 5.94745C8.62825 5.82742 8.79103 5.76 8.96077 5.76C9.13051 5.76 9.29329 5.82742 9.41331 5.94745C9.53334 6.06747 9.60076 6.23025 9.60076 6.39999V9.59996C9.60076 9.7697 9.53334 9.93248 9.41331 10.0525C9.29329 10.1725 9.13051 10.24 8.96077 10.24C8.79103 10.24 8.62825 10.1725 8.50823 10.0525C8.3882 9.93248 8.32078 9.7697 8.32078 9.59996V6.39999ZM8.96077 13.4399C8.7709 13.4399 8.5853 13.3836 8.42743 13.2781C8.26956 13.1726 8.14651 13.0227 8.07385 12.8473C8.00119 12.6719 7.98218 12.4789 8.01923 12.2926C8.05627 12.1064 8.1477 11.9354 8.28195 11.8011C8.41621 11.6669 8.58727 11.5754 8.77349 11.5384C8.95971 11.5013 9.15273 11.5204 9.32814 11.593C9.50356 11.6657 9.65349 11.7887 9.75897 11.9466C9.86446 12.1045 9.92076 12.2901 9.92076 12.4799C9.92076 12.7345 9.81962 12.9787 9.63959 13.1587C9.45955 13.3388 9.21538 13.4399 8.96077 13.4399Z" fill="#ED8936"/>
</svg>
