<svg width="36" height="36" viewBox="0 0 36 36" fill="none" xmlns="http://www.w3.org/2000/svg">
<g clip-path="url(#clip0_0_1084)">
<path d="M7.65844 28.3416C6.36469 27.0478 7.2225 24.3295 6.56438 22.7377C5.88094 21.0938 3.375 19.7578 3.375 18C3.375 16.2422 5.88094 14.9062 6.56438 13.2623C7.2225 11.6719 6.36469 8.95219 7.65844 7.65844C8.95219 6.36469 11.6719 7.2225 13.2623 6.56438C14.9133 5.88094 16.2422 3.375 18 3.375C19.7578 3.375 21.0938 5.88094 22.7377 6.56438C24.3295 7.2225 27.0478 6.36469 28.3416 7.65844C29.6353 8.95219 28.7775 11.6705 29.4356 13.2623C30.1191 14.9133 32.625 16.2422 32.625 18C32.625 19.7578 30.1191 21.0938 29.4356 22.7377C28.7775 24.3295 29.6353 27.0478 28.3416 28.3416C27.0478 29.6353 24.3295 28.7775 22.7377 29.4356C21.0938 30.1191 19.7578 32.625 18 32.625C16.2422 32.625 14.9062 30.1191 13.2623 29.4356C11.6719 28.7775 8.95219 29.6353 7.65844 28.3416Z" stroke="#718096" stroke-width="1.5" stroke-linecap="round" stroke-linejoin="round"/>
<path d="M18 11.25V19.125" stroke="#718096" stroke-width="1.5" stroke-linecap="round" stroke-linejoin="round"/>
<path d="M18 25.5938C18.7767 25.5938 19.4062 24.9642 19.4062 24.1875C19.4062 23.4108 18.7767 22.7812 18 22.7812C17.2233 22.7812 16.5938 23.4108 16.5938 24.1875C16.5938 24.9642 17.2233 25.5938 18 25.5938Z" fill="#718096"/>
</g>
<defs>
<clipPath id="clip0_0_1084">
<rect width="36" height="36" fill="white"/>
</clipPath>
</defs>
</svg>
