<svg width="24" height="24" viewBox="0 0 24 24" fill="none" xmlns="http://www.w3.org/2000/svg">
<circle cx="12" cy="12" r="12" fill="#C53030"/>
<path d="M16.4 8H8.4C8.17909 8 8 8.17909 8 8.4V16.4C8 16.6209 8.17909 16.8 8.4 16.8H16.4C16.6209 16.8 16.8 16.6209 16.8 16.4V8.4C16.8 8.17909 16.6209 8 16.4 8Z" stroke="#FFF5F5" stroke-width="0.8" stroke-linecap="round" stroke-linejoin="round"/>
<path d="M14.8 7.19995V8.79995" stroke="#FFF5F5" stroke-width="0.8" stroke-linecap="round" stroke-linejoin="round"/>
<path d="M10 7.19995V8.79995" stroke="#FFF5F5" stroke-width="0.8" stroke-linecap="round" stroke-linejoin="round"/>
<path d="M12.4 13.9269L13.8835 14.7999L13.48 13.1704L14.8 12.0804L13.0675 11.9469L12.4 10.3999L11.7325 11.9469L10 12.0804L11.32 13.1704L10.9165 14.7999L12.4 13.9269Z" stroke="#FFF5F5" stroke-width="0.8" stroke-linecap="round" stroke-linejoin="round"/>
</svg>
