<svg width="297" height="20" viewBox="0 0 297 20" fill="none" xmlns="http://www.w3.org/2000/svg">
<path d="M289.846 16.1538C289.846 14.3077 291.231 12.9231 293 12.9231C294.769 12.9231 296.154 14.3077 296.154 16.1538C296.154 18 294.769 19.3846 293 19.3846C291.231 19.3846 289.846 18 289.846 16.1538ZM293 20C295.077 20 296.923 18.3846 296.923 16.1538C296.923 13.9231 295.154 12.3077 293 12.3077C290.923 12.3077 289.077 13.9231 289.077 16.1538C289.077 18.3846 290.846 20 293 20ZM292.154 16.4615H292.923L294.077 18.3846H294.846L293.615 16.4615C294.231 16.3846 294.769 16 294.769 15.2308C294.769 14.3846 294.231 14 293.231 14H291.538V18.4615H292.231V16.4615H292.154ZM292.154 15.8461V14.4615H293.077C293.538 14.4615 294.077 14.5384 294.077 15.0769C294.077 15.7692 293.539 15.7692 293 15.7692H292.154V15.8461Z" fill="#0078B3"/>
<path d="M56.1539 0.461538H61.7692V19.4615H58.5385V3.30769L54.3846 19.4615H51.0769L47 3.30769V19.5385H43.7692V0.461538H49.5385L52.7692 14.2308L56.1539 0.461538ZM74.0769 0.461538L80.6154 19.4615H77.1538L75.3077 14H68.3077L66.5385 19.4615H63.3077L69.8462 0.461538H74.0769ZM74.4615 11.3846L71.8462 3.46154H71.7692L69.2308 11.3077H74.4615V11.3846ZM93.9231 15.1538L86.3846 0.538461H82.0769V19.5385H85.1539V5.15385L92.6154 19.4615H97.0769V0.461538H93.9231V15.1538ZM156 16.6923H148.231V11.3077H154V8.53846H148.231V3.15385H155.385V0.461538H145V19.4615H156.077V16.6923H156ZM125.538 0.461538V15.2308L118 0.461538H113.692V16.6923H103.769V11.3077H109.538V8.53846H103.769V3.15385H110.923V0.461538H100.538V19.4615H116.846V5L124.308 19.4615H128.769V3.30769H134.538V19.4615H137.846V3.30769H143.462V0.461538H125.538ZM39 9.92308C38.3077 10.4615 37.5385 10.9231 36.4615 11.1538L41.5385 19.5385H37.6154C37.6154 19.5385 34.3846 13.8462 32.9231 11.4615H31.3077V19.5385H14.7692V0.461538H25.1538V3.23077H18V8.61539H23.7692V11.3846H18V16.7692H28V0.461538H33.5385C36.3077 0.461538 37.9231 0.846154 39 1.84615C40 2.76923 40.7692 4.07692 40.7692 5.84615C40.8462 7.61539 40.0769 9 39 9.92308ZM34.1539 8.61539C36.6154 8.61539 37.6154 7.69231 37.6154 5.92308C37.6154 4.23077 36.6154 3.30769 34.1539 3.30769H31.3846V8.69231H34.1539V8.61539ZM11 1.92308C12 2.84615 12.7692 4.30769 12.7692 6.07692C12.7692 7.84615 12 9.30769 11 10.2308C9.84616 11.2308 8.23077 11.6923 5.53846 11.6923H3.30769V19.5385H0V0.461538H5.53846C8.23077 0.461538 9.84616 0.923077 11 1.92308ZM6.07692 8.92308C8.46154 8.92308 9.53846 7.76923 9.53846 6.07692C9.53846 4.38461 8.53846 3.30769 6.07692 3.30769H3.30769V8.92308H6.07692ZM185.769 19.4615V0.461538H183L176.385 16.6923L169.692 0.461538H166.923V19.4615H168.538V2.07692L175.846 19.4615H176.692L184 2.07692V19.4615H185.769ZM220.538 5.84615C221.154 7 221.385 8.38462 221.385 10C221.385 11.6154 221.077 13 220.538 14.1538C219.923 15.3077 219.154 16.3077 218.231 17.1538C217.308 17.9231 216.231 18.5385 215 18.9231C213.846 19.3077 212.615 19.5385 211.462 19.5385H190.154V0.461538H201.846V1.92308H191.846V8.84615H201.231V10.3077H191.846V18.0769H205.231V0.461538H211.462C212.615 0.461538 213.846 0.692308 215 1.07692C216.154 1.46154 217.231 2.07692 218.231 2.84615C219.154 3.69231 220 4.69231 220.538 5.84615ZM219.692 10C219.692 9 219.538 8 219.154 7C218.769 6.07692 218.231 5.15385 217.538 4.46154C216.846 3.69231 215.923 3.07692 214.769 2.61538C213.692 2.15385 212.385 1.92308 210.923 1.92308H206.846V18.0769H210.923C212.385 18.0769 213.692 17.8462 214.769 17.3846C215.846 16.9231 216.769 16.3077 217.538 15.5385C218.231 14.7692 218.769 13.9231 219.154 13C219.462 12 219.692 11 219.692 10ZM224.769 0.461538V19.4615H226.385V0.461538H224.769ZM245.154 1.76923C244.692 1.38462 244.154 1.07692 243.538 0.846154C242.923 0.615385 242.308 0.384616 241.615 0.230769C240.923 0.0769232 240.231 0 239.538 0C238.154 0 236.846 0.230769 235.615 0.769231C234.385 1.23077 233.385 2 232.462 2.84615C231.615 3.69231 230.846 4.76923 230.385 6C229.923 7.23077 229.615 8.53846 229.615 10C229.615 11.4615 229.846 12.7692 230.385 14C230.846 15.2308 231.538 16.3077 232.462 17.1538C233.308 18 234.385 18.7692 235.615 19.2308C236.846 19.6923 238.154 20 239.615 20C240.462 20 241.231 19.9231 242 19.6923C242.692 19.5385 243.385 19.2308 244 18.9231C244.615 18.6154 245.154 18.2308 245.538 17.7692C245.923 17.3846 246.308 17 246.615 16.5385L245.385 15.6923C244.692 16.6154 243.846 17.3846 242.923 17.7692C241.923 18.2308 240.846 18.4615 239.692 18.4615C238.462 18.4615 237.308 18.2308 236.308 17.7692C235.308 17.3077 234.462 16.6923 233.769 15.9231C233.077 15.1538 232.538 14.2308 232.154 13.2308C231.769 12.2308 231.615 11.0769 231.615 10C231.615 8.92308 231.769 7.76923 232.154 6.76923C232.538 5.76923 233.077 4.84615 233.769 4.07692C234.462 3.30769 235.308 2.69231 236.308 2.23077C237.308 1.76923 238.462 1.53846 239.769 1.53846C240.385 1.53846 241 1.61538 241.538 1.76923C242.077 1.92308 242.615 2.07692 243.077 2.38462C243.538 2.61538 243.923 2.92308 244.308 3.23077C244.615 3.53846 244.846 3.76923 245.077 4.07692L246.462 3.07692C246 2.46154 245.615 2.07692 245.154 1.76923ZM249.308 19.4615H250.923V0.461538H249.308V19.4615ZM255.308 0.461538V19.4615H256.923V2.38462L268.462 19.4615H270.692V0.461538H269V17.3077L257.462 0.461538H255.308ZM276.692 10.3077H286.077V8.84615H276.692V1.92308H286.692V0.461538H275V19.4615H287V18.0769H276.692V10.3077Z" fill="#0078B3"/>
</svg>
