<svg width="36" height="36" viewBox="0 0 36 36" fill="none" xmlns="http://www.w3.org/2000/svg">
<g clip-path="url(#clip0_0_1047)">
<path d="M21.375 6.75C23.2671 7.24826 24.9931 8.23981 26.3766 9.62335C27.7602 11.0069 28.7517 12.7329 29.25 14.625" stroke="#4A5568" stroke-linecap="round" stroke-linejoin="round"/>
<path d="M20.25 11.25C22.5731 11.8716 24.1284 13.4269 24.75 15.75" stroke="#4A5568" stroke-linecap="round" stroke-linejoin="round"/>
<path d="M21.9923 21.5635C22.1481 21.4598 22.3273 21.3966 22.5137 21.3797C22.7001 21.3627 22.8877 21.3926 23.0597 21.4664L29.6916 24.4378C29.9151 24.5334 30.1016 24.6987 30.2233 24.9091C30.345 25.1195 30.3952 25.3637 30.3666 25.605C30.1481 27.2378 29.3441 28.7356 28.104 29.8199C26.8639 30.9042 25.2723 31.5013 23.625 31.5C18.5527 31.5 13.6882 29.4851 10.1016 25.8984C6.51495 22.3118 4.5 17.4473 4.5 12.375C4.49874 10.7278 5.0958 9.13608 6.18014 7.89603C7.26447 6.65598 8.76228 5.85194 10.395 5.63347C10.6364 5.60479 10.8805 5.65506 11.0909 5.77674C11.3013 5.89842 11.4667 6.08497 11.5622 6.30847L14.5336 12.946C14.6066 13.1164 14.6363 13.3023 14.6201 13.4871C14.6039 13.6718 14.5423 13.8497 14.4408 14.0049L11.4356 17.5782C11.329 17.739 11.266 17.9248 11.2527 18.1173C11.2394 18.3098 11.2762 18.5024 11.3597 18.6764C12.5227 21.0572 14.9836 23.4886 17.3714 24.6403C17.5463 24.7234 17.7399 24.7595 17.933 24.7449C18.1261 24.7304 18.312 24.6657 18.4725 24.5574L21.9923 21.5635Z" stroke="#4A5568" stroke-linecap="round" stroke-linejoin="round"/>
</g>
<defs>
<clipPath id="clip0_0_1047">
<rect width="36" height="36" fill="white"/>
</clipPath>
</defs>
</svg>
