<svg width="24" height="24" viewBox="0 0 24 24" fill="none" xmlns="http://www.w3.org/2000/svg">
<path d="M17.0769 11.0769C17.0769 12.081 16.7792 13.0626 16.2213 13.8975C15.6634 14.7324 14.8705 15.3831 13.9429 15.7674C13.0152 16.1516 11.9944 16.2522 11.0095 16.0563C10.0247 15.8604 9.1201 15.3769 8.41008 14.6668C7.70006 13.9568 7.21653 13.0522 7.02063 12.0674C6.82474 11.0826 6.92528 10.0618 7.30954 9.13407C7.6938 8.20638 8.34452 7.41347 9.17942 6.85561C10.0143 6.29776 10.9959 6 12 6C13.346 6.00153 14.6365 6.5369 15.5882 7.48868C16.54 8.44046 17.0754 9.73091 17.0769 11.0769ZM24 12C24 14.3734 23.2962 16.6934 21.9776 18.6668C20.6591 20.6402 18.7849 22.1783 16.5922 23.0865C14.3995 23.9948 11.9867 24.2324 9.65892 23.7694C7.33115 23.3064 5.19295 22.1635 3.51472 20.4853C1.83649 18.807 0.693605 16.6689 0.230582 14.3411C-0.232441 12.0133 0.00519941 9.60051 0.913451 7.4078C1.8217 5.21508 3.35977 3.34094 5.33316 2.02236C7.30655 0.703788 9.62663 0 12 0C15.1816 0.00335979 18.2319 1.26872 20.4816 3.51843C22.7313 5.76814 23.9966 8.81843 24 12ZM22.1538 12C22.1524 10.6333 21.8753 9.28095 21.3392 8.0238C20.803 6.76665 20.0189 5.63053 19.0336 4.68338C18.0484 3.73624 16.8822 2.99753 15.6049 2.51142C14.3275 2.02531 12.9653 1.80179 11.5996 1.85423C6.165 2.06423 1.83116 6.59077 1.84616 12.0288C1.85137 14.5044 2.76441 16.8922 4.41231 18.7396C5.08342 17.7662 5.9359 16.9314 6.92308 16.2808C7.00725 16.2252 7.10731 16.1987 7.20795 16.2054C7.3086 16.212 7.40429 16.2515 7.48039 16.3177C8.73483 17.4027 10.338 17.9998 11.9965 17.9998C13.6551 17.9998 15.2583 17.4027 16.5127 16.3177C16.5888 16.2515 16.6845 16.212 16.7851 16.2054C16.8858 16.1987 16.9858 16.2252 17.07 16.2808C18.0584 16.931 18.9121 17.7659 19.5842 18.7396C21.2403 16.8854 22.1551 14.4861 22.1538 12Z" fill="#A0AEC0"/>
</svg>
