<svg width="36" height="36" viewBox="0 0 36 36" fill="none" xmlns="http://www.w3.org/2000/svg">
<g clip-path="url(#clip0_0_1064)">
<path d="M18 11.25V18L23.625 21.375" stroke="#718096" stroke-width="1.5" stroke-linecap="round" stroke-linejoin="round"/>
<path d="M25.875 14.625H31.5V9" stroke="#718096" stroke-width="1.5" stroke-linecap="round" stroke-linejoin="round"/>
<path d="M26.4937 27.0001C24.7247 28.6693 22.503 29.7803 20.1062 30.1941C17.7094 30.6079 15.2438 30.3063 13.0175 29.3268C10.7912 28.3474 8.90281 26.7336 7.58839 24.6871C6.27397 22.6406 5.59178 20.2521 5.62703 17.8201C5.66229 15.3881 6.41344 13.0204 7.78663 11.0129C9.15982 9.00537 11.0942 7.447 13.3479 6.53251C15.6017 5.61803 18.075 5.38798 20.4588 5.8711C22.8426 6.35423 25.0312 7.52912 26.7511 9.24896C28.4062 10.9252 29.7731 12.5058 31.5 14.6251" stroke="#718096" stroke-width="1.5" stroke-linecap="round" stroke-linejoin="round"/>
</g>
<defs>
<clipPath id="clip0_0_1064">
<rect width="36" height="36" fill="white"/>
</clipPath>
</defs>
</svg>
