<svg width="42" height="42" viewBox="0 0 42 42" fill="none" xmlns="http://www.w3.org/2000/svg">
<rect width="42" height="42" rx="21" fill="white"/>
<g clip-path="url(#clip0_0_948)">
<path d="M30 21.75C29.6184 26.37 25.7184 30 21 30C18.6131 30 16.3239 29.0518 14.636 27.364C12.9482 25.6761 12 23.3869 12 21C12 16.2816 15.63 12.3816 20.25 12" stroke="#006CA6" stroke-width="1.5" stroke-linecap="round" stroke-linejoin="round"/>
<path d="M21 15.75V21H26.25" stroke="#006CA6" stroke-width="1.5" stroke-linecap="round" stroke-linejoin="round"/>
<path d="M24 13.3125C24.5178 13.3125 24.9375 12.8928 24.9375 12.375C24.9375 11.8572 24.5178 11.4375 24 11.4375C23.4822 11.4375 23.0625 11.8572 23.0625 12.375C23.0625 12.8928 23.4822 13.3125 24 13.3125Z" fill="#006CA6"/>
<path d="M27.375 15.5625C27.8928 15.5625 28.3125 15.1428 28.3125 14.625C28.3125 14.1072 27.8928 13.6875 27.375 13.6875C26.8572 13.6875 26.4375 14.1072 26.4375 14.625C26.4375 15.1428 26.8572 15.5625 27.375 15.5625Z" fill="#006CA6"/>
<path d="M29.625 18.9375C30.1428 18.9375 30.5625 18.5178 30.5625 18C30.5625 17.4822 30.1428 17.0625 29.625 17.0625C29.1072 17.0625 28.6875 17.4822 28.6875 18C28.6875 18.5178 29.1072 18.9375 29.625 18.9375Z" fill="#006CA6"/>
</g>
<defs>
<clipPath id="clip0_0_948">
<rect width="24" height="24" fill="white" transform="translate(9 9)"/>
</clipPath>
</defs>
</svg>
