<svg width="36" height="36" viewBox="0 0 36 36" fill="none" xmlns="http://www.w3.org/2000/svg">
<g clip-path="url(#clip0_0_1073)">
<path d="M9 28.125C10.864 28.125 12.375 26.614 12.375 24.75C12.375 22.886 10.864 21.375 9 21.375C7.13604 21.375 5.625 22.886 5.625 24.75C5.625 26.614 7.13604 28.125 9 28.125Z" stroke="#718096" stroke-width="1.5" stroke-linecap="round" stroke-linejoin="round"/>
<path d="M27 28.125C28.864 28.125 30.375 26.614 30.375 24.75C30.375 22.886 28.864 21.375 27 21.375C25.136 21.375 23.625 22.886 23.625 24.75C23.625 26.614 25.136 28.125 27 28.125Z" stroke="#718096" stroke-width="1.5" stroke-linecap="round" stroke-linejoin="round"/>
<path d="M12.375 24.75H23.625" stroke="#718096" stroke-width="1.5" stroke-linecap="round" stroke-linejoin="round"/>
<path d="M30.375 24.75H33.75C34.0484 24.75 34.3345 24.6315 34.5455 24.4205C34.7565 24.2095 34.875 23.9234 34.875 23.625V18C34.875 17.7016 34.7565 17.4155 34.5455 17.2045C34.3345 16.9935 34.0484 16.875 33.75 16.875H29.25L22.8291 10.4541C22.6182 10.2435 22.3325 10.1251 22.0345 10.125H6.22687C6.04185 10.1251 5.85971 10.1709 5.69659 10.2582C5.53347 10.3455 5.39441 10.4717 5.29172 10.6256L1.125 16.875V23.625C1.125 23.9234 1.24353 24.2095 1.4545 24.4205C1.66548 24.6315 1.95163 24.75 2.25 24.75H5.625" stroke="#718096" stroke-width="1.5" stroke-linecap="round" stroke-linejoin="round"/>
<path d="M29.25 16.875H1.125" stroke="#718096" stroke-width="1.5" stroke-linecap="round" stroke-linejoin="round"/>
</g>
<defs>
<clipPath id="clip0_0_1073">
<rect width="36" height="36" fill="white"/>
</clipPath>
</defs>
</svg>
