<svg width="24" height="24" viewBox="0 0 24 24" fill="none" xmlns="http://www.w3.org/2000/svg">
<circle cx="12" cy="12" r="12" fill="#A0AEC0"/>
<path d="M16.4001 8H8.40006C8.17915 8 8.00006 8.17909 8.00006 8.4V16.4C8.00006 16.6209 8.17915 16.8 8.40006 16.8H16.4001C16.621 16.8 16.8001 16.6209 16.8001 16.4V8.4C16.8001 8.17909 16.621 8 16.4001 8Z" stroke="#F7FAFC" stroke-width="0.8" stroke-linecap="round" stroke-linejoin="round"/>
<path d="M14.8 7.19995V8.79995" stroke="#F7FAFC" stroke-width="0.8" stroke-linecap="round" stroke-linejoin="round"/>
<path d="M10.0001 7.19995V8.79995" stroke="#F7FAFC" stroke-width="0.8" stroke-linecap="round" stroke-linejoin="round"/>
<path d="M8.00006 10.3999H16.8001" stroke="#F7FAFC" stroke-width="0.8" stroke-linecap="round" stroke-linejoin="round"/>
<path d="M12.4 14.2999C12.7866 14.2999 13.1 13.9865 13.1 13.5999C13.1 13.2133 12.7866 12.8999 12.4 12.8999C12.0134 12.8999 11.7 13.2133 11.7 13.5999C11.7 13.9865 12.0134 14.2999 12.4 14.2999Z" fill="#F7FAFC"/>
</svg>
